<svg width="14" height="13" viewBox="0 0 14 13" fill="none" xmlns="http://www.w3.org/2000/svg">
<path d="M6.27582 0.5427C6.56377 -0.0707039 7.43623 -0.0707037 7.72418 0.542701L8.98181 3.22179C9.09506 3.46305 9.32103 3.63207 9.58446 3.67256L12.4622 4.11485C13.1056 4.21374 13.3678 4.99869 12.913 5.46445L10.7822 7.64685C10.6047 7.82859 10.5241 8.08382 10.565 8.33452L11.0607 11.3737C11.1683 12.0329 10.4685 12.5258 9.88404 12.2026L7.38714 10.8219C7.14624 10.6886 6.85376 10.6886 6.61286 10.8219L4.11596 12.2026C3.53151 12.5258 2.83174 12.0329 2.93925 11.3737L3.43498 8.33452C3.47587 8.08382 3.39527 7.82859 3.21781 7.64685L1.08696 5.46445C0.632194 4.99869 0.89443 4.21374 1.53783 4.11485L4.41554 3.67256C4.67897 3.63207 4.90494 3.46305 5.01819 3.22179L6.27582 0.5427Z" fill="#F9CA24"/>
</svg>
